<?xml version="1.0" encoding="UTF-8"?>
<svg width="144" height="48" viewBox="0 0 144 48" fill="none" xmlns="http://www.w3.org/2000/svg">
  <!-- LinkedIn -->
  <g transform="translate(0,0)">
    <rect width="48" height="48" rx="24" fill="#1878c1"/>
    <path d="M16 20h4v16h-4zm2-6a2 2 0 100 4 2 2 0 000-4zm16 10c0-4-1-6-5-6-2 0-4 1-4 3v-3h-4v16h4v-8c0-2 0-4 3-4s3 2 3 4v8h4v-10z" fill="white"/>
  </g>
  <!-- Twitter -->
  <g transform="translate(48,0)">
    <rect width="48" height="48" rx="24" fill="#1878c1"/>
    <path d="M36 16c-1.1.5-2.2.8-3.4 1 1.2-.7 2.2-1.9 2.7-3.3-1.2.7-2.5 1.2-3.8 1.5-1.1-1.2-2.7-1.9-4.4-1.9-3.3 0-6 2.7-6 6 0 .5.1.9.2 1.4-5-.2-9.4-2.6-12.4-6.3-.5.9-.8 1.9-.8 3 0 2.1 1.1 3.9 2.7 5-1 0-1.9-.3-2.7-.8v.1c0 2.9 2.1 5.3 4.9 5.9-.5.1-1 .2-1.6.2-.4 0-.8 0-1.1-.1.8 2.4 3 4.1 5.7 4.2-2.1 1.6-4.7 2.6-7.5 2.6-.5 0-1 0-1.4-.1 2.7 1.7 5.9 2.7 9.3 2.7 11.2 0 17.3-9.3 17.3-17.3v-.8c1.2-.9 2.2-1.9 3-3.2z" fill="white"/>
  </g>
  <!-- Instagram -->
  <g transform="translate(96,0)">
    <rect width="48" height="48" rx="24" fill="#1878c1"/>
    <path d="M24 16c-4.4 0-8 3.6-8 8s3.6 8 8 8 8-3.6 8-8-3.6-8-8-8zm0 13c-2.8 0-5-2.2-5-5s2.2-5 5-5 5 2.2 5 5-2.2 5-5 5zm9.8-13.5c0-.7-.6-1.3-1.3-1.3-.7 0-1.3.6-1.3 1.3s.6 1.3 1.3 1.3 1.3-.6 1.3-1.3z" fill="white"/>
  </g>
</svg>
